<?xml version="1.0" standalone="no"?>
<!DOCTYPE svg PUBLIC "-//W3C//DTD SVG 20010904//EN"
 "http://www.w3.org/TR/2001/REC-SVG-20010904/DTD/svg10.dtd">
<svg version="1.0" xmlns="http://www.w3.org/2000/svg"
 width="468.000000pt" height="512.000000pt" viewBox="0 0 468.000000 512.000000"
 preserveAspectRatio="xMidYMid meet">

<g transform="translate(0.000000,512.000000) scale(0.100000,-0.100000)"
fill="#000000" stroke="none">
<path d="M1060 3930 l0 -90 155 0 155 0 2 -497 3 -498 98 -3 97 -3 0 501 0
500 154 0 155 0 3 90 3 90 -412 0 -413 0 0 -90z"/>
<path d="M2012 3433 l3 -588 98 -3 97 -3 0 268 0 268 190 0 190 0 0 -268 0
-268 98 3 97 3 3 588 2 587 -100 0 -100 0 0 -235 0 -235 -190 0 -190 0 0 235
0 235 -100 0 -100 0 2 -587z"/>
<path d="M2950 3430 l0 -590 325 0 325 0 0 90 0 90 -230 0 -230 0 0 175 0 175
180 0 180 0 0 90 0 90 -180 0 -180 0 0 145 0 145 223 2 222 3 3 88 3 87 -321
0 -320 0 0 -590z"/>
<path d="M1343 2640 c-84 -18 -160 -74 -196 -145 -43 -85 -47 -250 -8 -359 31
-89 73 -147 219 -300 74 -78 150 -164 169 -192 71 -107 65 -289 -12 -340 -33
-21 -107 -21 -140 0 -40 26 -55 74 -55 176 l0 90 -106 0 -106 0 4 -132 c3
-113 7 -139 26 -175 49 -94 142 -138 292 -138 125 0 188 22 250 85 68 67 85
123 85 280 0 193 -25 244 -232 466 -172 185 -213 254 -213 360 0 76 9 111 37
139 54 53 153 40 185 -25 13 -25 18 -59 18 -117 l0 -83 96 0 96 0 -4 128 c-2
98 -7 135 -21 164 -21 41 -75 83 -139 105 -51 19 -186 26 -245 13z"/>
<path d="M3131 2634 c-102 -27 -163 -82 -202 -181 -24 -58 -24 -61 -27 -538
-4 -511 0 -560 44 -646 50 -100 143 -143 304 -143 165 -1 259 52 316 176 l29
63 0 525 c0 491 -1 528 -19 574 -22 58 -76 121 -125 145 -81 41 -220 52 -320
25z m195 -169 c14 -9 36 -38 47 -63 22 -46 22 -57 22 -517 0 -461 0 -471 -22
-517 -47 -103 -166 -110 -237 -14 -21 27 -21 38 -21 529 0 487 1 503 20 537
39 67 127 87 191 45z"/>
<path d="M1900 1885 l0 -755 100 0 100 0 0 755 0 755 -100 0 -100 0 0 -755z"/>
<path d="M2250 1885 l0 -755 278 2 277 3 3 88 3 87 -176 0 -175 0 0 665 0 665
-105 0 -105 0 0 -755z"/>
</g>
</svg>
